<svg width="240" height="240" viewBox="0 0 240 240" fill="none" xmlns="http://www.w3.org/2000/svg">
<path opacity="0.34" d="M37.0781 223.5C56.0025 223.5 71.3438 220.499 71.3438 216.797C71.3438 213.095 56.0025 210.094 37.0781 210.094C18.1537 210.094 2.8125 213.095 2.8125 216.797C2.8125 220.499 18.1537 223.5 37.0781 223.5Z" fill="#575FA8"/>
<path d="M40.8281 204.703L40.125 216.141H60.5625C60.5625 216.141 52.2187 210.562 48.5156 208.781L48.0937 204.75H40.8281V204.703Z" fill="#F08789"/>
<path d="M47.1562 113.953L48.5156 207.797H40.4531C40.4531 207.797 31.5469 171.047 35.9062 160.312L28.125 113.953H47.1562Z" fill="#32388D"/>
<path opacity="0.2" d="M47.1562 113.953H28.1719L35.9531 160.312C34.4531 164.016 34.5 170.859 35.25 178.219L48.3281 194.203L47.1562 113.953Z" fill="#020203"/>
<path d="M19.2656 206.203L16.125 217.641H38.4375C38.4375 217.641 29.0156 212.063 25.2656 210.281L25.9688 206.25H19.2656V206.203Z" fill="#F08789"/>
<path d="M47.7188 112.781L39.7969 159.844L26.4375 207.797H18.4219C18.4219 207.797 21 161.766 29.25 156.984L22.7344 112.828H47.7188V112.781Z" fill="#32388D"/>
<path opacity="0.2" d="M47.2031 116.016L47.7188 112.781H22.7344L23.2969 116.625L47.25 119.672L47.2031 116.016Z" fill="#020203"/>
<path d="M60.6094 80.2969C60.6094 80.2969 65.5781 72.2812 73.3125 70.4531L70.2656 74.1094C70.2656 74.1094 71.7187 77.9062 69.8906 79.8281C68.0625 81.75 65.1094 81.8906 65.1094 81.8906L63.0469 84.1875L60.6094 80.2969Z" fill="#F5ABAE"/>
<path d="M40.9688 73.7344L47.7656 87.6094L61.0781 78.6094L64.4062 83.7188C64.4062 83.7188 52.8281 105.469 47.7188 103.875C42.6094 102.281 38.2031 90.7969 38.2031 90.7969L40.9688 73.7344Z" fill="white"/>
<path opacity="0.2" d="M47.7188 87.6094L40.9219 73.7344L38.2031 90.7969C38.2031 90.7969 42.6094 102.281 47.7188 103.875C47.8594 103.922 47.9531 103.922 48.0938 103.922L54.2344 83.1562L47.7188 87.6094Z" fill="#020203"/>
<path d="M46.125 40.9688C46.125 40.9688 46.9218 48.047 47.7187 49.7813H45.5156C45.5156 49.7813 45.7031 56.5782 44.2968 57.422C43.3125 58.0313 40.4531 57.422 39.7968 58.2188C39.1406 59.0157 38.1562 64.6876 38.1562 64.6876L29.2968 63.9376L30.1875 56.0157C30.1875 56.0157 25.2187 50.0626 26.7187 42.7501C28.2187 35.4376 44.8125 34.172 46.125 40.9688Z" fill="#F5ABAE"/>
<path opacity="0.2" d="M35.0625 52.7812L28.0781 52.4062C29.1094 54.6094 30.2344 55.9688 30.2344 55.9688L29.3437 63.8906L38.2031 64.6406C38.2031 64.6406 39.1875 58.9688 39.8438 58.1719C40.0781 57.8906 40.6406 57.75 41.2969 57.75C37.875 56.8125 34.7813 52.9687 35.0625 52.7812Z" fill="#020203"/>
<path d="M46.4063 43.3125C46.4063 43.3125 44.5313 44.4375 40.7813 41.9532C40.7813 41.9532 38.25 46.5 36.0469 45.8907C36.0469 45.8907 35.9532 49.125 35.4844 49.3594C35.0157 49.5938 34.0782 46.5938 33.1407 46.4063C32.2032 46.2188 31.2188 47.1563 32.25 49.9688C33.2344 52.7813 35.0625 52.7813 35.0625 52.7813L30.1875 56.0157C30.1875 56.0157 26.3438 54.7969 25.5938 51.6094C25.5938 51.6094 20.7188 46.875 23.6719 43.5C23.6719 43.5 20.4375 40.7813 27.9844 37.4532C27.9844 37.4532 29.7657 30.8907 33.2813 33.8907C33.2813 33.8907 39.7969 29.0157 41.3907 33.375C41.3907 33.375 49.7813 32.6719 50.2969 37.2188C50.8125 41.7657 48.7969 42.8438 48.7969 42.8438C48.7969 42.8438 49.2657 46.5938 46.9219 46.7813L46.4063 43.3125Z" fill="#212226"/>
<path d="M23.1562 73.1251C23.1562 73.1251 18.75 72.0469 19.5 67.3594C20.25 62.6251 26.4375 60.5157 39.1406 63.4688C40.6406 63.7969 41.8125 66.2813 40.8281 68.4376C40.8281 68.4376 44.9062 78.4688 46.1719 86.6719C47.4375 94.8751 48.0937 103.453 49.5 107.438C50.8594 111.422 49.7344 115.875 45.9375 115.875C42.1875 115.875 27.375 115.875 22.7812 115.875C18.1875 115.875 17.625 109.5 19.4531 102.844C21.2344 96.2344 23.9062 77.9063 23.1562 73.1251Z" fill="#444496"/>
<path d="M33.4688 70.5469C40.6875 72.0937 35.6719 86.4375 34.2188 90.5156C32.7657 94.6406 31.1719 98.2969 33.4688 101.484C35.7657 104.672 39.7969 108.234 39.7969 108.234L37.0781 113.953C37.0781 113.953 22.0313 112.031 18.4219 107.578C14.8594 103.125 16.875 93.1875 19.9688 86.3437C23.0625 79.5 28.0782 69.4219 33.4688 70.5469Z" fill="white"/>
<path d="M36.6563 114.938C36.4688 114.844 36.4219 114.656 36.4688 114.469L40.1251 106.5C40.2188 106.313 40.4063 106.266 40.5938 106.313C40.7813 106.406 40.8282 106.594 40.7813 106.781L37.1251 114.75C37.0313 114.938 36.8438 114.984 36.6563 114.938Z" fill="#A77071"/>
<path d="M33.2344 142.078C33.2344 143.25 32.2969 144.234 31.0781 144.234C29.9063 144.234 28.9219 143.25 28.9219 142.078C28.9219 140.906 29.8594 139.922 31.0781 139.922C32.2969 139.969 33.2344 140.906 33.2344 142.078Z" fill="#59BCAB"/>
<path d="M19.8281 141.516C16.8281 141.516 14.3906 139.078 14.3906 136.078C14.3906 133.078 16.8281 130.641 19.8281 130.641C22.8281 130.641 25.2656 133.078 25.2656 136.078C25.2656 139.078 22.8281 141.516 19.8281 141.516ZM19.8281 133.5C18.375 133.5 17.25 134.672 17.25 136.078C17.25 137.484 18.4219 138.656 19.8281 138.656C21.2812 138.656 22.4062 137.484 22.4062 136.078C22.4062 134.672 21.2812 133.5 19.8281 133.5Z" fill="#FCC450"/>
<path d="M176.156 35.1563H174.375V36.9844C174.375 37.8281 173.719 38.4844 172.875 38.4844C172.031 38.4844 171.375 37.8281 171.375 36.9844V35.1563H169.547C168.703 35.1563 168.047 34.5 168.047 33.6563C168.047 32.8125 168.703 32.1562 169.547 32.1562H171.375V30.3281C171.375 29.4844 172.031 28.8281 172.875 28.8281C173.719 28.8281 174.375 29.4844 174.375 30.3281V32.1562H176.203C177.047 32.1562 177.703 32.8125 177.703 33.6563C177.656 34.5 177 35.1563 176.156 35.1563Z" fill="#59BCAB"/>
<path d="M190.875 25.6875C190.875 26.8594 189.937 27.8438 188.719 27.8438C187.547 27.8438 186.562 26.9062 186.562 25.6875C186.562 24.5156 187.547 23.5312 188.719 23.5312C189.891 23.5313 190.875 24.4687 190.875 25.6875Z" fill="#345185"/>
<path d="M79.9219 73.9219C73.4532 57.7031 76.7813 38.5312 89.9063 25.4062C96.2344 19.0781 103.969 15 112.125 13.2656L116.953 35.1562C106.781 37.3594 99.1876 46.4062 99.1876 57.2344C99.1876 60.1875 99.7501 63 100.781 65.625L79.9219 73.9219Z" fill="#345185"/>
<path d="M89.9062 89.0625C89.5781 88.7344 89.2031 88.3594 88.875 87.9844L105.234 72.6562C109.359 77.0625 115.219 79.7812 121.734 79.7812C134.203 79.7812 144.328 69.6562 144.328 57.1875C144.328 48.2812 139.219 40.5938 131.719 36.9375L141.656 16.8281C145.969 18.9375 150 21.7969 153.562 25.3594C171.141 42.9375 171.141 71.4844 153.562 89.0625C136.031 106.641 107.484 106.641 89.9062 89.0625Z" fill="white"/>
<path d="M121.781 34.6407C120.094 34.6407 118.5 34.8282 116.953 35.1563L112.172 13.2657C122.016 11.1094 132.469 12.2813 141.703 16.875L131.766 36.9844C128.766 35.4375 125.344 34.6407 121.781 34.6407Z" fill="#59BCAB"/>
<path d="M88.875 87.9844C84.9375 83.7656 81.9375 78.9844 79.9219 73.9219L100.781 65.625C101.812 68.25 103.359 70.6406 105.281 72.7031L88.875 87.9844Z" fill="#C1E4EE"/>
<path d="M224.39 47.2031V198.047C224.39 200.578 222.328 202.641 219.797 202.641H123.328C120.797 202.641 118.734 200.578 118.734 198.047V47.2031C118.734 44.6719 120.797 42.5625 123.328 42.5625H219.75C222.328 42.5625 224.39 44.625 224.39 47.2031Z" fill="#4FBECB"/>
<path d="M108.094 206.953H235.031C236.203 206.953 237.187 206.016 237.187 204.797C237.187 203.625 236.25 202.641 235.031 202.641H108.094C106.922 202.641 105.937 203.578 105.937 204.797C105.937 206.016 106.922 206.953 108.094 206.953Z" fill="#E2E2E1"/>
<path d="M224.39 47.1563V58.4062H118.734V47.1563C118.734 44.625 120.797 42.5156 123.328 42.5156H219.75C222.328 42.5625 224.39 44.625 224.39 47.1563Z" fill="#4FBECB"/>
<path d="M171.562 198.656C169.172 198.656 167.25 196.734 167.25 194.344C167.25 191.953 169.172 190.031 171.562 190.031C173.953 190.031 175.875 191.953 175.875 194.344C175.922 196.734 173.953 198.656 171.562 198.656Z" fill="#E6F2EA"/>
<path d="M130.922 52.125C129.937 52.125 129.14 51.3281 129.14 50.3438C129.14 49.3594 129.937 48.5625 130.922 48.5625C131.906 48.5625 132.703 49.3594 132.703 50.3438C132.656 51.3281 131.859 52.125 130.922 52.125Z" fill="#E6F2EA"/>
<path d="M136.5 52.125C135.515 52.125 134.719 51.3281 134.719 50.3438C134.719 49.3594 135.515 48.5625 136.5 48.5625C137.484 48.5625 138.281 49.3594 138.281 50.3438C138.281 51.3281 137.484 52.125 136.5 52.125Z" fill="#E6F2EA"/>
<path d="M222.75 58.4062H120.375V185.391H222.75V58.4062Z" fill="#D2EBF7"/>
<path d="M138.699 100.969V85.9219H104.809V100.969H138.699Z" fill="#A9DAE5"/>
<path d="M159.381 139.258V124.211H125.49V139.258H159.381Z" fill="#A9DAE5"/>
<path d="M149.064 120.137V105.09H115.173V120.137H149.064Z" fill="#A9DAE5"/>
<path d="M216.891 63.75H125.484V80.8594H216.891V63.75Z" fill="#EDF6F4"/>
<path d="M214.125 66.1875H201.984V78.3281H214.125V66.1875Z" fill="#D2E8F2"/>
<path d="M157.688 66.9375H131.391V69.2812H157.688V66.9375Z" fill="#ACD8C8"/>
<path d="M157.688 71.1094H131.391V73.4531H157.688V71.1094Z" fill="#ACD8C8"/>
<path d="M149.109 75.2812H131.391V77.625H149.109V75.2812Z" fill="#ACD8C8"/>
<path opacity="0.5" d="M234.14 136.828H159.375V171.938H234.14V136.828Z" fill="#96CEB8"/>
<path d="M196.172 148.969H166.828V151.922H196.172V148.969Z" fill="#E6F2EA"/>
<path d="M189.187 154.219H166.828V157.172H189.187V154.219Z" fill="#E6F2EA"/>
<path d="M181.922 159.516H166.828V162.469H181.922V159.516Z" fill="#E6F2EA"/>
<path d="M192.797 159.516H183.797V162.469H192.797V159.516Z" fill="#E6F2EA"/>
<path d="M187.219 164.766H166.828V167.719H187.219V164.766Z" fill="#E6F2EA"/>
<path d="M152.484 144.891H125.484V171.891H152.484V144.891Z" fill="#9FD2BA"/>
<path d="M144.955 164.447C148.25 161.152 148.25 155.809 144.955 152.514C141.66 149.219 136.318 149.219 133.023 152.514C129.728 155.809 129.728 161.152 133.023 164.447C136.318 167.742 141.66 167.742 144.955 164.447Z" fill="#7CC39E"/>
<path d="M145.407 158.484C145.407 160.594 144.375 162.469 142.782 163.641C142.313 163.969 141.797 164.297 141.235 164.484C141 164.578 140.719 164.672 140.485 164.719C140.344 164.766 140.157 164.766 140.016 164.813C139.688 164.859 139.36 164.906 139.032 164.906C138.375 164.906 137.719 164.813 137.11 164.625C134.485 163.828 132.61 161.391 132.61 158.484C132.61 157.5 132.844 156.516 133.266 155.672C133.781 154.641 134.531 153.75 135.469 153.141C135.703 153 135.938 152.859 136.172 152.719C136.688 152.437 137.25 152.25 137.86 152.156C138.235 152.063 138.657 152.062 139.032 152.062C141.75 152.062 144.094 153.75 144.985 156.141C145.219 156.891 145.407 157.641 145.407 158.484Z" fill="#EFF4F4"/>
<path d="M138.985 159.234C138.563 159.234 138.235 158.906 138.235 158.484V154.359C138.235 153.937 138.563 153.609 138.985 153.609C139.406 153.609 139.735 153.937 139.735 154.359V158.484C139.735 158.906 139.406 159.234 138.985 159.234Z" fill="#C1D6CF"/>
<path d="M138.985 159.234C138.75 159.234 138.516 159.094 138.375 158.906C138.141 158.578 138.281 158.109 138.61 157.875L140.719 156.516C141.047 156.281 141.516 156.422 141.75 156.75C141.985 157.078 141.844 157.547 141.516 157.781L139.406 159.141C139.266 159.188 139.125 159.234 138.985 159.234Z" fill="#C1D6CF"/>
<path d="M216.891 85.9219H163.547V139.266H216.891V85.9219Z" fill="#98D5E9"/>
<path d="M190.219 114.984C186.469 114.984 183.422 111.937 183.422 108.187V104.109C183.422 100.359 186.469 97.3125 190.219 97.3125C193.969 97.3125 197.016 100.359 197.016 104.109V108.187C197.016 111.937 193.969 114.984 190.219 114.984Z" fill="#F8FCFA"/>
<path d="M190.219 111.516C183.797 111.516 178.313 115.266 175.734 120.703C174.234 123.891 176.531 127.547 180.047 127.547H200.438C203.953 127.547 206.25 123.891 204.75 120.703C202.172 115.266 196.641 111.516 190.219 111.516Z" fill="#F8FCFA"/>
<path d="M216.88 178.057V173.697L125.474 173.697V178.057L216.88 178.057Z" fill="#FFE1AB"/>
<path d="M223.734 84.1875V68.2969C224.859 68.2969 225.797 69.2344 225.797 70.3594V82.1719C225.797 83.2969 224.859 84.1875 223.734 84.1875Z" fill="#4FBECB"/>
<path d="M223.734 101.953V86.0625C224.859 86.0625 225.797 87 225.797 88.125V99.9375C225.797 101.016 224.859 101.953 223.734 101.953Z" fill="#4FBECB"/>
<path opacity="0.3" d="M179.766 58.4062L120.375 117.797V85.875L147.844 58.4062H179.766Z" fill="#F6FBFD"/>
<path opacity="0.3" d="M201.984 58.4062L120.375 140.016V124.078L186.047 58.4062H201.984Z" fill="#F6FBFD"/>
<path opacity="0.3" d="M141.562 149.813V163.5C141.562 164.062 141.188 164.578 140.672 164.719V202.594H123.375C120.844 202.594 118.781 200.531 118.781 198V121.922H137.484C139.266 121.922 140.672 123.375 140.672 125.109V148.594C141.188 148.781 141.562 149.25 141.562 149.813Z" fill="#385F82"/>
<path d="M128.391 115.594V220.313C128.391 222.094 126.938 223.5 125.203 223.5H70.2188C68.4844 223.5 67.0312 222.094 67.0312 220.313V115.594C67.0312 113.813 68.4844 112.406 70.2188 112.406H125.156C126.938 112.406 128.391 113.813 128.391 115.594Z" fill="#5BB98E"/>
<path d="M128.391 115.594V123.422H67.0312V115.594C67.0312 113.813 68.4844 112.406 70.2188 112.406H125.203C126.938 112.406 128.391 113.859 128.391 115.594Z" fill="#5BB98E"/>
<path d="M97.6875 220.781C96.0469 220.781 94.6875 219.422 94.6875 217.781C94.6875 216.141 96.0469 214.781 97.6875 214.781C99.3281 214.781 100.688 216.141 100.688 217.781C100.688 219.422 99.375 220.781 97.6875 220.781Z" fill="#E6F2EA"/>
<path d="M86.5781 119.016C85.9219 119.016 85.3594 118.453 85.3594 117.797C85.3594 117.141 85.9219 116.578 86.5781 116.578C87.2344 116.578 87.7969 117.141 87.7969 117.797C87.7969 118.5 87.2812 119.016 86.5781 119.016Z" fill="#E6F2EA"/>
<path d="M103.875 118.266H91.7344C91.5 118.266 91.2656 118.078 91.2656 117.797C91.2656 117.516 91.4531 117.328 91.7344 117.328H103.875C104.109 117.328 104.344 117.516 104.344 117.797C104.344 118.078 104.109 118.266 103.875 118.266Z" fill="#E6F2EA"/>
<path d="M127.219 123.422H68.1562V211.594H127.219V123.422Z" fill="#D2EBF7"/>
<path d="M83.625 170.297H72.8906V173.672H83.625V170.297Z" fill="#EDF6F4"/>
<path d="M110.953 170.297H100.219V173.672H110.953V170.297Z" fill="#EDF6F4"/>
<path d="M97.2656 170.297H86.5312V173.672H97.2656V170.297Z" fill="#EDF6F4"/>
<path d="M122.578 176.438H79.3594V188.297H122.578V176.438Z" fill="#EDF6F4"/>
<path d="M120.656 178.125H112.219V186.562H120.656V178.125Z" fill="#D5EAE4"/>
<path d="M95.3906 178.641H77.1094V180.281H95.3906V178.641Z" fill="#ACD8C8"/>
<path d="M95.3906 181.547H77.1094V183.188H95.3906V181.547Z" fill="#ACD8C8"/>
<path d="M89.3906 184.453H77.1094V186.094H89.3906V184.453Z" fill="#ACD8C8"/>
<path d="M104.578 191.25H72.9844V206.062H104.578V191.25Z" fill="#EDF6F4"/>
<path d="M93.2344 193.5H77.1094V195.141H93.2344V193.5Z" fill="#FFE1AB"/>
<path d="M89.3906 196.359H77.1094V198H89.3906V196.359Z" fill="#FFE1AB"/>
<path d="M85.4062 199.266H77.1094V200.906H85.4062V199.266Z" fill="#FFE1AB"/>
<path d="M91.3594 199.266H86.4375V200.906H91.3594V199.266Z" fill="#ACD8C8"/>
<path d="M88.3125 202.172H77.1094V203.812H88.3125V202.172Z" fill="#FFE1AB"/>
<path opacity="0.5" d="M111 128.906H64.5V166.828H111V128.906Z" fill="#FFE1AB"/>
<path d="M92.0156 159.891C98.5913 159.891 103.922 154.56 103.922 147.984C103.922 141.409 98.5913 136.078 92.0156 136.078C85.44 136.078 80.1094 141.409 80.1094 147.984C80.1094 154.56 85.44 159.891 92.0156 159.891Z" fill="#FCC450"/>
<path d="M101.016 147.984C101.016 150.984 99.5625 153.609 97.3594 155.25C96.7031 155.719 95.9531 156.141 95.1562 156.422C94.8281 156.563 94.4531 156.656 94.0781 156.75C93.8437 156.797 93.6094 156.844 93.4219 156.891C92.9531 156.984 92.4844 156.984 92.0156 156.984C91.0781 156.984 90.1875 156.844 89.3438 156.563C85.6875 155.438 83.0156 151.969 83.0156 147.938C83.0156 146.531 83.3437 145.219 83.9062 144C84.6094 142.547 85.6875 141.281 87.0469 140.391C87.375 140.156 87.7031 139.969 88.0312 139.828C88.7812 139.453 89.5781 139.172 90.375 139.031C90.9375 138.938 91.4531 138.891 92.0156 138.891C95.8594 138.891 99.1406 141.281 100.406 144.656C100.828 145.734 101.016 146.859 101.016 147.984Z" fill="#EFF4F4"/>
<path d="M92.0156 149.063C91.4531 149.063 90.9844 148.594 90.9844 148.031V142.266C90.9844 141.703 91.4531 141.234 92.0156 141.234C92.5781 141.234 93.0469 141.703 93.0469 142.266V148.031C93.0469 148.594 92.5781 149.063 92.0156 149.063Z" fill="#C1D6CF"/>
<path d="M92.0155 149.062C91.6873 149.062 91.3123 148.875 91.1248 148.594C90.7967 148.125 90.9842 147.469 91.453 147.141L94.453 145.266C94.9217 144.937 95.578 145.125 95.9061 145.594C96.2342 146.062 96.0467 146.719 95.578 147.047L92.578 148.922C92.3905 149.016 92.203 149.062 92.0155 149.062Z" fill="#C1D6CF"/>
<path opacity="0.3" d="M109.406 123.422L68.1562 164.625V142.5L87.2344 123.422H109.406Z" fill="#F6FBFD"/>
<path opacity="0.3" d="M124.828 123.422L68.1562 180.094V168.984L113.719 123.422H124.828Z" fill="#F6FBFD"/>
<g opacity="0.7">
<path opacity="0.7" d="M130.641 191.25H107.766V214.125H130.641V191.25Z" fill="#9FD2BA"/>
<path opacity="0.7" d="M119.156 203.719C117.562 203.719 116.25 202.406 116.25 200.812V199.078C116.25 197.484 117.562 196.172 119.156 196.172C120.75 196.172 122.063 197.484 122.063 199.078V200.812C122.109 202.406 120.797 203.719 119.156 203.719Z" fill="#F8FCFA"/>
<path opacity="0.7" d="M119.156 202.219C116.391 202.219 114.047 203.812 112.922 206.156C112.266 207.516 113.25 209.109 114.75 209.109H123.469C124.969 209.109 125.953 207.516 125.297 206.156C124.312 203.812 121.922 202.219 119.156 202.219Z" fill="#F8FCFA"/>
</g>
<path d="M121.969 128.906H115.172V173.672H121.969V128.906Z" fill="#9FD2BA"/>
<path d="M127.922 155.344V138.984C128.672 138.984 129.281 139.594 129.281 140.344V154.031C129.281 154.734 128.672 155.344 127.922 155.344Z" fill="#5BB98E"/>
<path opacity="0.3" d="M86.8594 112.406L81.2344 128.906L68.2969 166.828L67.0313 170.578V166.828H64.5469V128.906H67.0313V115.594C67.0313 113.813 68.4844 112.406 70.2188 112.406H86.8594Z" fill="#385F82"/>
<path d="M36.4219 227.812H137.016C138.187 227.812 139.172 226.875 139.172 225.656C139.172 224.484 138.234 223.5 137.016 223.5H36.4219C35.25 223.5 34.2656 224.438 34.2656 225.656C34.3125 226.875 35.25 227.812 36.4219 227.812Z" fill="#E2E2E1"/>
</svg>
